<?xml version="1.0" standalone="no"?>
<!DOCTYPE svg PUBLIC "-//W3C//DTD SVG 20010904//EN"
 "http://www.w3.org/TR/2001/REC-SVG-20010904/DTD/svg10.dtd">
<svg version="1.0" xmlns="http://www.w3.org/2000/svg"
 width="500.000000pt" height="500.000000pt" viewBox="0 0 500.000000 500.000000"
 preserveAspectRatio="xMidYMid meet">
<metadata>
Created by potrace 1.14, written by Peter Selinger 2001-2017
</metadata>
<g transform="translate(0.000000,500.000000) scale(0.100000,-0.100000)"
fill="#000000" stroke="none">
<path d="M2015 2763 c-47 -25 -72 -51 -94 -102 -17 -40 -33 -56 -113 -110 -51
-35 -96 -70 -100 -79 -8 -21 -10 -82 -2 -82 3 0 59 37 124 81 95 65 123 80
143 75 50 -12 143 39 172 95 18 35 13 36 -27 8 -22 -16 -38 -20 -65 -16 -19 4
-37 8 -40 11 -2 2 1 22 7 44 7 29 20 47 45 62 19 12 35 24 35 26 0 10 -58 2
-85 -13z"/>
<path d="M861 2385 c-34 -85 -61 -157 -61 -160 0 -3 24 -5 53 -5 l53 0 19 55
18 55 91 0 91 1 45 39 c26 24 39 40 30 41 -77 4 -103 5 -157 7 -51 2 -61 5
-57 17 5 12 26 15 103 15 l97 0 49 45 50 44 -182 1 -182 0 -60 -155z"/>
<path d="M1306 2532 c-3 -5 -32 -77 -64 -160 l-60 -152 53 0 53 0 61 153 c34
83 61 155 61 160 0 10 -98 9 -104 -1z"/>
<path d="M1450 2535 c0 -3 23 -40 51 -81 28 -42 49 -77 47 -78 -1 -1 -53 -36
-115 -77 l-112 -74 65 -3 c62 -3 66 -1 128 43 35 25 68 45 74 45 6 0 23 -20
39 -45 l28 -45 73 0 c59 0 71 3 65 14 -4 7 -53 79 -107 160 l-99 146 -69 0
c-37 0 -68 -2 -68 -5z"/>
<path d="M2017 2529 c-94 -22 -166 -90 -185 -175 -22 -101 26 -138 178 -139
113 0 176 20 232 73 43 41 78 109 78 151 0 39 -34 78 -78 91 -44 12 -172 12
-225 -1z m178 -93 c17 -12 18 -16 4 -51 -22 -60 -57 -79 -147 -83 -64 -3 -81
-1 -101 15 -22 18 -22 20 -8 54 26 62 58 79 151 79 54 0 89 -5 101 -14z"/>
<path d="M2467 2529 c-9 -5 -34 -36 -55 -67 -21 -31 -54 -79 -72 -107 -19 -27
-46 -66 -62 -86 -15 -20 -28 -40 -28 -43 0 -4 23 -6 52 -4 l51 3 56 82 c34 51
58 78 62 71 4 -6 11 -39 14 -72 10 -87 19 -100 63 -92 30 4 53 22 120 93 l83
88 -5 -40 c-3 -22 -8 -62 -12 -88 l-6 -48 53 3 54 3 13 143 c8 79 11 150 8
158 -3 8 -19 14 -38 14 -27 0 -46 -14 -127 -95 -52 -52 -98 -95 -102 -95 -3 0
-12 34 -18 76 -6 41 -16 84 -21 95 -12 21 -53 25 -83 8z"/>
<path d="M2986 2532 c-2 -4 -30 -71 -61 -147 -31 -77 -59 -146 -62 -152 -4
-10 30 -13 153 -13 l159 1 45 39 45 39 -134 1 c-117 0 -132 2 -127 16 3 9 6
18 6 20 0 2 44 4 99 4 l98 0 44 40 44 39 -122 1 c-103 0 -123 3 -123 15 0 12
18 15 106 15 l105 0 45 37 c24 21 44 41 44 45 0 10 -357 10 -364 0z"/>
<path d="M3501 2529 c-124 -24 -224 -146 -194 -236 5 -15 24 -38 43 -50 29
-20 45 -23 144 -23 l111 0 45 40 45 39 -112 1 c-61 0 -123 4 -138 10 -54 20
-45 77 18 115 38 22 55 25 136 25 92 0 93 0 137 36 24 20 44 40 44 45 0 11
-220 10 -279 -2z"/>
<path d="M3810 2520 c-6 -11 -31 -73 -56 -138 -26 -64 -50 -127 -55 -139 -8
-22 -6 -23 45 -23 l54 0 24 60 23 60 87 0 c49 0 88 -2 88 -4 0 -2 -9 -25 -20
-51 -11 -26 -20 -51 -20 -56 0 -6 22 -9 50 -7 l51 3 59 150 c33 83 60 154 60
158 0 4 -23 7 -51 5 l-51 -3 -20 -52 -19 -53 -90 0 -89 0 20 50 c11 28 20 53
20 55 0 3 -22 5 -50 5 -39 0 -51 -4 -60 -20z"/>
</g>
</svg>
